<svg xmlns:xlink="http://www.w3.org/1999/xlink" xmlns="http://www.w3.org/2000/svg" width="28" height="28" viewBox="0 0 28 28" fill="none">
<rect x="4" y="13" width="8" height="11" rx="2" fill="#DDF3FF"/>
<rect x="15" y="4" width="9" height="11" rx="3" fill="#DDF3FF"/>
<rect x="15" y="18" width="9" height="6" rx="2" fill="#D7F8F3"/>
<rect x="4" y="4" width="8" height="6" rx="2" fill="#D7F8F3"/>
<path fill-rule="evenodd" clip-rule="evenodd" d="M17.48 15.5H21.52C23.52 15.5 24.5 14.57 24.5 12.65V5.85C24.5 3.93 23.53 3 21.52 3H17.48C15.48 3 14.5 3.93 14.5 5.85V12.65C14.5 14.57 15.47 15.5 17.48 15.5ZM16 5.85C16 4.84 16.21 4.5 17.48 4.5H21.52C22.79 4.5 23 4.84 23 5.85V12.65C23 13.66 22.79 14 21.52 14H17.48C16.21 14 16 13.66 16 12.65V5.85ZM5.98 24.5H10.02C12.02 24.5 13 23.57 13 21.65V14.85C13 12.93 12.03 12 10.02 12H5.98C3.98 12 3 12.93 3 14.85V21.65C3 23.57 3.97 24.5 5.98 24.5ZM4.5 14.85C4.5 13.84 4.71 13.5 5.98 13.5H10.02C11.29 13.5 11.5 13.84 11.5 14.85V21.65C11.5 22.66 11.29 23 10.02 23H5.98C4.71 23 4.5 22.66 4.5 21.65V14.85Z" fill="#4894DD"/>
<path fill-rule="evenodd" clip-rule="evenodd" d="M5.98 10.5H10.02C12.02 10.5 13 9.57 13 7.65V5.85C13 3.93 12.03 3 10.02 3H5.98C3.98 3 3 3.93 3 5.85V7.65C3 9.57 3.97 10.5 5.98 10.5ZM4.5 5.85C4.5 4.84 4.71 4.5 5.98 4.5H10.02C11.29 4.5 11.5 4.84 11.5 5.85V7.65C11.5 8.66 11.29 9 10.02 9H5.98C4.71 9 4.5 8.66 4.5 7.65V5.85ZM17.48 24.5H21.52C23.52 24.5 24.5 23.57 24.5 21.65V19.85C24.5 17.93 23.53 17 21.52 17H17.48C15.48 17 14.5 17.93 14.5 19.85V21.65C14.5 23.57 15.47 24.5 17.48 24.5ZM16 19.85C16 18.84 16.21 18.5 17.48 18.5H21.52C22.79 18.5 23 18.84 23 19.85V21.65C23 22.66 22.79 23 21.52 23H17.48C16.21 23 16 22.66 16 21.65V19.85Z" fill="#71BEB5"/>
</svg>